<?xml version="1.0" encoding="UTF-8"?>
<svg xmlns="http://www.w3.org/2000/svg" width="1200" height="500" viewBox="0 0 1200 500">
  <rect width="1200" height="500" fill="#0c0c0e"/>
  <defs>
    <clipPath id="wordClip">
      <text x="600" y="322" text-anchor="middle" font-family="Helvetica Neue, Helvetica, Arial, ui-sans-serif, system-ui, sans-serif" font-size="182" font-weight="700" fill="#ffffff">ScanAIPAC</text>
    </clipPath>
  </defs>
  <text x="600" y="322" text-anchor="middle" font-family="Helvetica Neue, Helvetica, Arial, ui-sans-serif, system-ui, sans-serif" font-size="182" font-weight="700" fill="#ffffff">ScanAIPAC</text>
  <g clip-path="url(#wordClip)">
    <rect x="0" y="0" width="1200" height="7" fill="#0c0c0e"/>
    <rect x="0" y="12" width="1200" height="3" fill="#0c0c0e"/>
    <rect x="0" y="21" width="1200" height="5" fill="#0c0c0e"/>
    <rect x="0" y="30" width="1200" height="2" fill="#0c0c0e"/>
    <rect x="0" y="39" width="1200" height="8" fill="#0c0c0e"/>
    <rect x="0" y="50" width="1200" height="4" fill="#0c0c0e"/>
    <rect x="0" y="60" width="1200" height="3" fill="#0c0c0e"/>
    <rect x="0" y="68" width="1200" height="6" fill="#0c0c0e"/>
    <rect x="0" y="78" width="1200" height="5" fill="#0c0c0e"/>
    <rect x="0" y="89" width="1200" height="4" fill="#0c0c0e"/>
    <rect x="0" y="98" width="1200" height="2" fill="#0c0c0e"/>
    <rect x="0" y="108" width="1200" height="7" fill="#0c0c0e"/>
    <rect x="0" y="119" width="1200" height="6" fill="#0c0c0e"/>
    <rect x="0" y="130" width="1200" height="3" fill="#0c0c0e"/>
    <rect x="0" y="139" width="1200" height="5" fill="#0c0c0e"/>
    <rect x="0" y="148" width="1200" height="7" fill="#0c0c0e"/>
    <rect x="0" y="160" width="1200" height="3" fill="#0c0c0e"/>
    <rect x="0" y="169" width="1200" height="5" fill="#0c0c0e"/>
    <rect x="0" y="178" width="1200" height="2" fill="#0c0c0e"/>
    <rect x="0" y="187" width="1200" height="8" fill="#0c0c0e"/>
    <rect x="0" y="198" width="1200" height="4" fill="#0c0c0e"/>
    <rect x="0" y="208" width="1200" height="3" fill="#0c0c0e"/>
    <rect x="0" y="216" width="1200" height="6" fill="#0c0c0e"/>
    <rect x="0" y="226" width="1200" height="5" fill="#0c0c0e"/>
    <rect x="0" y="237" width="1200" height="4" fill="#0c0c0e"/>
    <rect x="0" y="246" width="1200" height="2" fill="#0c0c0e"/>
    <rect x="0" y="256" width="1200" height="7" fill="#0c0c0e"/>
    <rect x="0" y="267" width="1200" height="6" fill="#0c0c0e"/>
    <rect x="0" y="278" width="1200" height="3" fill="#0c0c0e"/>
    <rect x="0" y="287" width="1200" height="5" fill="#0c0c0e"/>
    <rect x="0" y="296" width="1200" height="7" fill="#0c0c0e"/>
    <rect x="0" y="308" width="1200" height="3" fill="#0c0c0e"/>
    <rect x="0" y="317" width="1200" height="5" fill="#0c0c0e"/>
    <rect x="0" y="326" width="1200" height="2" fill="#0c0c0e"/>
    <rect x="0" y="335" width="1200" height="8" fill="#0c0c0e"/>
    <rect x="0" y="346" width="1200" height="4" fill="#0c0c0e"/>
    <rect x="0" y="356" width="1200" height="3" fill="#0c0c0e"/>
    <rect x="0" y="364" width="1200" height="6" fill="#0c0c0e"/>
    <rect x="0" y="374" width="1200" height="5" fill="#0c0c0e"/>
    <rect x="0" y="385" width="1200" height="4" fill="#0c0c0e"/>
    <rect x="0" y="394" width="1200" height="2" fill="#0c0c0e"/>
    <rect x="0" y="404" width="1200" height="7" fill="#0c0c0e"/>
    <rect x="0" y="415" width="1200" height="6" fill="#0c0c0e"/>
    <rect x="0" y="426" width="1200" height="3" fill="#0c0c0e"/>
    <rect x="0" y="435" width="1200" height="5" fill="#0c0c0e"/>
    <rect x="0" y="444" width="1200" height="7" fill="#0c0c0e"/>
    <rect x="0" y="456" width="1200" height="3" fill="#0c0c0e"/>
    <rect x="0" y="465" width="1200" height="5" fill="#0c0c0e"/>
    <rect x="0" y="474" width="1200" height="2" fill="#0c0c0e"/>
    <rect x="0" y="483" width="1200" height="8" fill="#0c0c0e"/>
    <rect x="0" y="494" width="1200" height="4" fill="#0c0c0e"/>
  </g>
</svg>