<?xml version="1.0" encoding="UTF-8"?>
<svg xmlns="http://www.w3.org/2000/svg" width="1200" height="500" viewBox="0 0 1200 500">
  <rect width="1200" height="500" fill="#0c0c0e"/>
  <defs>
    <clipPath id="wordClip">
      <text x="600" y="322" text-anchor="middle" font-family="Helvetica Neue, Helvetica, Arial, ui-sans-serif, system-ui, sans-serif" font-size="182" font-weight="700" fill="#ffffff">ScanAIPAC</text>
    </clipPath>
  </defs>
  <text x="600" y="322" text-anchor="middle" font-family="Helvetica Neue, Helvetica, Arial, ui-sans-serif, system-ui, sans-serif" font-size="182" font-weight="700" fill="#ffffff">ScanAIPAC</text>
  <g clip-path="url(#wordClip)">
    <rect x="0" y="0" width="1200" height="3" fill="#0c0c0e"/>
    <rect x="0" y="7" width="1200" height="3" fill="#0c0c0e"/>
    <rect x="0" y="14" width="1200" height="3" fill="#0c0c0e"/>
    <rect x="0" y="21" width="1200" height="3" fill="#0c0c0e"/>
    <rect x="0" y="28" width="1200" height="3" fill="#0c0c0e"/>
    <rect x="0" y="35" width="1200" height="3" fill="#0c0c0e"/>
    <rect x="0" y="42" width="1200" height="3" fill="#0c0c0e"/>
    <rect x="0" y="49" width="1200" height="3" fill="#0c0c0e"/>
    <rect x="0" y="56" width="1200" height="3" fill="#0c0c0e"/>
    <rect x="0" y="63" width="1200" height="3" fill="#0c0c0e"/>
    <rect x="0" y="70" width="1200" height="3" fill="#0c0c0e"/>
    <rect x="0" y="77" width="1200" height="3" fill="#0c0c0e"/>
    <rect x="0" y="84" width="1200" height="3" fill="#0c0c0e"/>
    <rect x="0" y="91" width="1200" height="3" fill="#0c0c0e"/>
    <rect x="0" y="98" width="1200" height="3" fill="#0c0c0e"/>
    <rect x="0" y="105" width="1200" height="3" fill="#0c0c0e"/>
    <rect x="0" y="112" width="1200" height="3" fill="#0c0c0e"/>
    <rect x="0" y="119" width="1200" height="3" fill="#0c0c0e"/>
    <rect x="0" y="126" width="1200" height="3" fill="#0c0c0e"/>
    <rect x="0" y="133" width="1200" height="3" fill="#0c0c0e"/>
    <rect x="0" y="140" width="1200" height="3" fill="#0c0c0e"/>
    <rect x="0" y="147" width="1200" height="3" fill="#0c0c0e"/>
    <rect x="0" y="154" width="1200" height="3" fill="#0c0c0e"/>
    <rect x="0" y="161" width="1200" height="3" fill="#0c0c0e"/>
    <rect x="0" y="168" width="1200" height="3" fill="#0c0c0e"/>
    <rect x="0" y="175" width="1200" height="3" fill="#0c0c0e"/>
    <rect x="0" y="182" width="1200" height="3" fill="#0c0c0e"/>
    <rect x="0" y="189" width="1200" height="3" fill="#0c0c0e"/>
    <rect x="0" y="196" width="1200" height="3" fill="#0c0c0e"/>
    <rect x="0" y="203" width="1200" height="3" fill="#0c0c0e"/>
    <rect x="0" y="210" width="1200" height="3" fill="#0c0c0e"/>
    <rect x="0" y="217" width="1200" height="3" fill="#0c0c0e"/>
    <rect x="0" y="224" width="1200" height="3" fill="#0c0c0e"/>
    <rect x="0" y="231" width="1200" height="3" fill="#0c0c0e"/>
    <rect x="0" y="238" width="1200" height="3" fill="#0c0c0e"/>
    <rect x="0" y="245" width="1200" height="3" fill="#0c0c0e"/>
    <rect x="0" y="252" width="1200" height="3" fill="#0c0c0e"/>
    <rect x="0" y="259" width="1200" height="3" fill="#0c0c0e"/>
    <rect x="0" y="266" width="1200" height="3" fill="#0c0c0e"/>
    <rect x="0" y="273" width="1200" height="3" fill="#0c0c0e"/>
    <rect x="0" y="280" width="1200" height="3" fill="#0c0c0e"/>
    <rect x="0" y="287" width="1200" height="3" fill="#0c0c0e"/>
    <rect x="0" y="294" width="1200" height="3" fill="#0c0c0e"/>
    <rect x="0" y="301" width="1200" height="3" fill="#0c0c0e"/>
    <rect x="0" y="308" width="1200" height="3" fill="#0c0c0e"/>
    <rect x="0" y="315" width="1200" height="3" fill="#0c0c0e"/>
    <rect x="0" y="322" width="1200" height="3" fill="#0c0c0e"/>
    <rect x="0" y="329" width="1200" height="3" fill="#0c0c0e"/>
    <rect x="0" y="336" width="1200" height="3" fill="#0c0c0e"/>
    <rect x="0" y="343" width="1200" height="3" fill="#0c0c0e"/>
    <rect x="0" y="350" width="1200" height="3" fill="#0c0c0e"/>
    <rect x="0" y="357" width="1200" height="3" fill="#0c0c0e"/>
    <rect x="0" y="364" width="1200" height="3" fill="#0c0c0e"/>
    <rect x="0" y="371" width="1200" height="3" fill="#0c0c0e"/>
    <rect x="0" y="378" width="1200" height="3" fill="#0c0c0e"/>
    <rect x="0" y="385" width="1200" height="3" fill="#0c0c0e"/>
    <rect x="0" y="392" width="1200" height="3" fill="#0c0c0e"/>
    <rect x="0" y="399" width="1200" height="3" fill="#0c0c0e"/>
    <rect x="0" y="406" width="1200" height="3" fill="#0c0c0e"/>
    <rect x="0" y="413" width="1200" height="3" fill="#0c0c0e"/>
    <rect x="0" y="420" width="1200" height="3" fill="#0c0c0e"/>
    <rect x="0" y="427" width="1200" height="3" fill="#0c0c0e"/>
    <rect x="0" y="434" width="1200" height="3" fill="#0c0c0e"/>
    <rect x="0" y="441" width="1200" height="3" fill="#0c0c0e"/>
    <rect x="0" y="448" width="1200" height="3" fill="#0c0c0e"/>
    <rect x="0" y="455" width="1200" height="3" fill="#0c0c0e"/>
    <rect x="0" y="462" width="1200" height="3" fill="#0c0c0e"/>
    <rect x="0" y="469" width="1200" height="3" fill="#0c0c0e"/>
    <rect x="0" y="476" width="1200" height="3" fill="#0c0c0e"/>
    <rect x="0" y="483" width="1200" height="3" fill="#0c0c0e"/>
    <rect x="0" y="490" width="1200" height="3" fill="#0c0c0e"/>
    <rect x="0" y="497" width="1200" height="3" fill="#0c0c0e"/>
  </g>
</svg>